{
  "title": "Ed Sheeran - Thinking Out Loud (2014.Pop)",
  "uid": 11245992,
  "size": 155703734,
  "categoryP": "video",
  "categoryS": "music_videos",
  "magnet": "?xt=urn:btih:c7dbea47d97629a35599e95f320d09967eab95fd&amp;dn=Ed+Sheeran+-+Thinking+Out+Loud+%282014.Pop%29&amp;tr=udp%3A%2F%2Ftracker.openbittorrent.com%3A80&amp;tr=udp%3A%2F%2Fopen.demonii.com%3A1337&amp;tr=udp%3A%2F%2Ftracker.coppersurfer.tk%3A6969&amp;tr=udp%3A%2F%2Fexodus.desync.com%3A6969",
  "seeders": 123,
  "leechers": 1,
  "uploader": "MeRaDil",
  "files": -1,
  "time": 1413740083,
  "description": "ED SHEERAN - THINKING OUT LOUD\n\n &lt;a href=&quot;\nhttp://gifyu.com/images/Sheeran.png&quot; rel=&quot;nofollow&quot; target=&quot;_NEW&quot;&gt;\nhttp://gifyu.com/images/Sheeran.png&lt;/a&gt;\n\n\nMPEG4 MUSIC VID\nGeneral\nComplete name                            : Ed Sheeran - Thinking Out Loud\nFormat                                   : MPEG-4\nFormat profile                           : Base Media\nCodec ID                                 : isom\nFile size                                : 148 MiB\nDuration                                 : 4mn 44s\nOverall bit rate                         : 4 371 Kbps\nMusicVid name                            : Thinking Out Loud\nAlbum                                    : X\nPerformer                                : Ed Sheeran\nGenre                                    : Pop\nContentType                              : Music Video\nRecorded date                            : 2014\nCopyright                                : Ed Sheeran\nCover                                    : Yes\nMake                                     : MeRaDil\noday                                     : 07-10-2014 UK\nlabl                                     : Asylum Records . Atlantic Records\nrelease                                  : UK - october 7 - 2014\nPart_ID                                  : Thinking Out Loud\n\nVideo\nID                                       : 1\nFormat                                   : AVC\nFormat/Info                              : Advanced Video Codec\nFormat profile                           : &lt;a class=&quot;__cf_email__&quot; href=&quot;/cdn-cgi/l/email-protection&quot; data-cfemail=&quot;367e5f515e767a021806&quot;&gt;[email&amp;#160;protected]&lt;/a&gt;&lt;script cf-hash='f9e31' type=&quot;text/javascript&quot;&gt;\n/* &lt;![CDATA[ */!function(){try{var t=&quot;currentScript&quot;in document?document.currentScript:function(){for(var t=document.getElementsByTagName(&quot;script&quot;),e=t.length;e--;)if(t[e].getAttribute(&quot;cf-hash&quot;))return t[e]}();if(t&amp;&amp;t.previousSibling){var e,r,n,i,c=t.previousSibling,a=c.getAttribute(&quot;data-cfemail&quot;);if(a){for(e=&quot;&quot;,r=parseInt(a.substr(0,2),16),n=2;a.length-n;n+=2)i=parseInt(a.substr(n,2),16)^r,e+=String.fromCharCode(i);e=document.createTextNode(e),c.parentNode.replaceChild(e,c)}}}catch(u){}}();/* ]]&gt; */&lt;/script&gt;\nFormat settings, CABAC                   : Yes\nFormat settings, ReFrames                : 2 frames\nCodec ID                                 : avc1\nCodec ID/Info                            : Advanced Video Coding\nDuration                                 : 4mn 44s\nBit rate                                 : 4 107 Kbps\nWidth                                    : 1 920 pixels\nHeight                                   : 1 080 pixels\nDisplay aspect ratio                     : 16:9\nFrame rate mode                          : Variable\nFrame rate                               : 23.976 fps\nMinimum frame rate                       : 23.974 fps\nMaximum frame rate                       : 23.981 fps\nColor space                              : YUV\nChroma subsampling                       : 4:2:0\nBit depth                                : 8 bits\nScan type                                : Progressive\nBits/(Pixel*Frame)                       : 0.083\nStream size                              : 140 MiB (94%)\n\nAudio\nID                                       : 2\nFormat                                   : AAC\nFormat/Info                              : Advanced Audio Codec\nFormat profile                           : LC\nCodec ID                                 : 40\nDuration                                 : 4mn 44s\nBit rate mode                            : Constant\nBit rate                                 : 256 Kbps\nChannel(s)                               : 2 channels\nChannel positions                        : Front: L R\nSampling rate                            : 44.1 KHz\nCompression mode                         : Lossy\nStream size                              : 8.69 MiB (6%)\n &lt;a href=&quot;\nhttps://thepiratebay.se/user/MeRaDil&quot; rel=&quot;nofollow&quot; target=&quot;_NEW&quot;&gt;\nhttps://thepiratebay.se/user/MeRaDil&lt;/a&gt;\n\nEd Sheeran * X * Pop * Ballad * Promo\n\n:)",
  "parsed": {
    "xt": "urn:btih:c7dbea47d97629a35599e95f320d09967eab95fd",
    "dn": "Ed Sheeran - Thinking Out Loud (2014.Pop)",
    "tr": [
      "udp://exodus.desync.com:6969",
      "udp://open.demonii.com:1337",
      "udp://tracker.coppersurfer.tk:6969",
      "udp://tracker.openbittorrent.com:80"
    ],
    "infoHash": "c7dbea47d97629a35599e95f320d09967eab95fd",
    "infoHashBuffer": {
      "type": "Buffer",
      "data": [
        199,
        219,
        234,
        71,
        217,
        118,
        41,
        163,
        85,
        153,
        233,
        95,
        50,
        13,
        9,
        150,
        126,
        171,
        149,
        253
      ]
    },
    "name": "Ed Sheeran - Thinking Out Loud (2014.Pop)",
    "announce": [
      "udp://exodus.desync.com:6969",
      "udp://open.demonii.com:1337",
      "udp://tracker.coppersurfer.tk:6969",
      "udp://tracker.openbittorrent.com:80"
    ],
    "urlList": []
  },
  "previous": 14,
  "peers": 93,
  "last_updated": "2016-12-27T12:49:48.550Z"
}